<mxfile host="app.diagrams.net" modified="2023-04-18T20:33:42.730Z" agent="Mozilla/5.0 (Windows NT 10.0; Win64; x64) AppleWebKit/537.36 (KHTML, like Gecko) Chrome/112.0.0.0 Safari/537.36 Edg/112.0.1722.48" etag="g4S2J1A_2t2wUjSut9og" version="21.1.9" type="device">
  <diagram name="Page-1" id="Wy3ox8o_KZW3OduOIb58">
    <mxGraphModel dx="545" dy="746" grid="1" gridSize="10" guides="1" tooltips="1" connect="1" arrows="1" fold="1" page="1" pageScale="1" pageWidth="827" pageHeight="1169" math="0" shadow="0">
      <root>
        <mxCell id="0" />
        <mxCell id="1" parent="0" />
        <mxCell id="JJhkUHVivG3j7rxepxkd-31" style="edgeStyle=orthogonalEdgeStyle;rounded=0;orthogonalLoop=1;jettySize=auto;html=1;exitX=1;exitY=0;exitDx=0;exitDy=0;entryX=0;entryY=0;entryDx=0;entryDy=0;" edge="1" parent="1" source="JJhkUHVivG3j7rxepxkd-18" target="JJhkUHVivG3j7rxepxkd-20">
          <mxGeometry relative="1" as="geometry" />
        </mxCell>
        <mxCell id="JJhkUHVivG3j7rxepxkd-38" value="&lt;b&gt;&lt;i&gt;&lt;font style=&quot;font-size: 13px;&quot;&gt;0.1&lt;/font&gt;&lt;/i&gt;&lt;/b&gt;" style="edgeLabel;html=1;align=center;verticalAlign=middle;resizable=0;points=[];" vertex="1" connectable="0" parent="JJhkUHVivG3j7rxepxkd-31">
          <mxGeometry x="0.29" relative="1" as="geometry">
            <mxPoint as="offset" />
          </mxGeometry>
        </mxCell>
        <mxCell id="JJhkUHVivG3j7rxepxkd-18" value="&lt;b style=&quot;font-size: 13px;&quot;&gt;&lt;i&gt;Rain&lt;br&gt;R = -2&lt;/i&gt;&lt;/b&gt;" style="ellipse;whiteSpace=wrap;html=1;aspect=fixed;" vertex="1" parent="1">
          <mxGeometry x="100" y="210" width="80" height="80" as="geometry" />
        </mxCell>
        <mxCell id="JJhkUHVivG3j7rxepxkd-19" style="edgeStyle=orthogonalEdgeStyle;rounded=0;orthogonalLoop=1;jettySize=auto;html=1;exitX=0.5;exitY=0;exitDx=0;exitDy=0;curved=1;entryX=0.768;entryY=0.088;entryDx=0;entryDy=0;entryPerimeter=0;" edge="1" parent="1" source="JJhkUHVivG3j7rxepxkd-18" target="JJhkUHVivG3j7rxepxkd-18">
          <mxGeometry relative="1" as="geometry">
            <mxPoint x="170" y="210" as="targetPoint" />
            <Array as="points">
              <mxPoint x="110" y="210" />
              <mxPoint x="110" y="140" />
              <mxPoint x="161" y="140" />
            </Array>
          </mxGeometry>
        </mxCell>
        <mxCell id="JJhkUHVivG3j7rxepxkd-40" value="&lt;b&gt;&lt;i&gt;&lt;font style=&quot;font-size: 13px;&quot;&gt;0.9&lt;/font&gt;&lt;/i&gt;&lt;/b&gt;" style="edgeLabel;html=1;align=center;verticalAlign=middle;resizable=0;points=[];" vertex="1" connectable="0" parent="JJhkUHVivG3j7rxepxkd-19">
          <mxGeometry x="-0.2296" y="-4" relative="1" as="geometry">
            <mxPoint as="offset" />
          </mxGeometry>
        </mxCell>
        <mxCell id="JJhkUHVivG3j7rxepxkd-32" style="edgeStyle=orthogonalEdgeStyle;rounded=0;orthogonalLoop=1;jettySize=auto;html=1;exitX=0;exitY=1;exitDx=0;exitDy=0;entryX=1;entryY=1;entryDx=0;entryDy=0;" edge="1" parent="1" source="JJhkUHVivG3j7rxepxkd-20" target="JJhkUHVivG3j7rxepxkd-18">
          <mxGeometry relative="1" as="geometry" />
        </mxCell>
        <mxCell id="JJhkUHVivG3j7rxepxkd-37" value="&lt;b&gt;&lt;i&gt;&lt;font style=&quot;font-size: 13px;&quot;&gt;0.2&lt;/font&gt;&lt;/i&gt;&lt;/b&gt;" style="edgeLabel;html=1;align=center;verticalAlign=middle;resizable=0;points=[];" vertex="1" connectable="0" parent="JJhkUHVivG3j7rxepxkd-32">
          <mxGeometry x="0.2707" y="1" relative="1" as="geometry">
            <mxPoint as="offset" />
          </mxGeometry>
        </mxCell>
        <mxCell id="JJhkUHVivG3j7rxepxkd-33" style="edgeStyle=orthogonalEdgeStyle;rounded=0;orthogonalLoop=1;jettySize=auto;html=1;exitX=1;exitY=0;exitDx=0;exitDy=0;entryX=0;entryY=0;entryDx=0;entryDy=0;" edge="1" parent="1" source="JJhkUHVivG3j7rxepxkd-20" target="JJhkUHVivG3j7rxepxkd-22">
          <mxGeometry relative="1" as="geometry" />
        </mxCell>
        <mxCell id="JJhkUHVivG3j7rxepxkd-39" value="&lt;b&gt;&lt;i&gt;&lt;font style=&quot;font-size: 13px;&quot;&gt;0.3&lt;/font&gt;&lt;/i&gt;&lt;/b&gt;" style="edgeLabel;html=1;align=center;verticalAlign=middle;resizable=0;points=[];" vertex="1" connectable="0" parent="JJhkUHVivG3j7rxepxkd-33">
          <mxGeometry x="0.232" y="-1" relative="1" as="geometry">
            <mxPoint as="offset" />
          </mxGeometry>
        </mxCell>
        <mxCell id="JJhkUHVivG3j7rxepxkd-20" value="&lt;b style=&quot;font-size: 13px;&quot;&gt;&lt;i&gt;Cloud&lt;br&gt;R = 0&lt;/i&gt;&lt;/b&gt;" style="ellipse;whiteSpace=wrap;html=1;aspect=fixed;" vertex="1" parent="1">
          <mxGeometry x="260" y="210" width="80" height="80" as="geometry" />
        </mxCell>
        <mxCell id="JJhkUHVivG3j7rxepxkd-21" style="edgeStyle=orthogonalEdgeStyle;rounded=0;orthogonalLoop=1;jettySize=auto;html=1;exitX=0.5;exitY=0;exitDx=0;exitDy=0;curved=1;entryX=0.768;entryY=0.088;entryDx=0;entryDy=0;entryPerimeter=0;" edge="1" source="JJhkUHVivG3j7rxepxkd-20" target="JJhkUHVivG3j7rxepxkd-20" parent="1">
          <mxGeometry relative="1" as="geometry">
            <mxPoint x="330" y="210" as="targetPoint" />
            <Array as="points">
              <mxPoint x="270" y="210" />
              <mxPoint x="270" y="140" />
              <mxPoint x="321" y="140" />
            </Array>
          </mxGeometry>
        </mxCell>
        <mxCell id="JJhkUHVivG3j7rxepxkd-41" value="&lt;b&gt;&lt;i&gt;&lt;font style=&quot;font-size: 13px;&quot;&gt;0.5&lt;/font&gt;&lt;/i&gt;&lt;/b&gt;" style="edgeLabel;html=1;align=center;verticalAlign=middle;resizable=0;points=[];" vertex="1" connectable="0" parent="JJhkUHVivG3j7rxepxkd-21">
          <mxGeometry x="-0.0282" y="-7" relative="1" as="geometry">
            <mxPoint as="offset" />
          </mxGeometry>
        </mxCell>
        <mxCell id="JJhkUHVivG3j7rxepxkd-30" style="edgeStyle=orthogonalEdgeStyle;rounded=0;orthogonalLoop=1;jettySize=auto;html=1;exitX=0.5;exitY=1;exitDx=0;exitDy=0;entryX=1;entryY=0.5;entryDx=0;entryDy=0;curved=1;" edge="1" parent="1" source="JJhkUHVivG3j7rxepxkd-22" target="JJhkUHVivG3j7rxepxkd-28">
          <mxGeometry relative="1" as="geometry" />
        </mxCell>
        <mxCell id="JJhkUHVivG3j7rxepxkd-35" value="&lt;b&gt;&lt;i&gt;&lt;font style=&quot;font-size: 13px;&quot;&gt;0.1&lt;/font&gt;&lt;/i&gt;&lt;/b&gt;" style="edgeLabel;html=1;align=center;verticalAlign=middle;resizable=0;points=[];" vertex="1" connectable="0" parent="JJhkUHVivG3j7rxepxkd-30">
          <mxGeometry x="-0.3077" y="-20" relative="1" as="geometry">
            <mxPoint as="offset" />
          </mxGeometry>
        </mxCell>
        <mxCell id="JJhkUHVivG3j7rxepxkd-34" style="edgeStyle=orthogonalEdgeStyle;rounded=0;orthogonalLoop=1;jettySize=auto;html=1;exitX=0;exitY=1;exitDx=0;exitDy=0;entryX=0.938;entryY=0.863;entryDx=0;entryDy=0;entryPerimeter=0;" edge="1" parent="1" source="JJhkUHVivG3j7rxepxkd-22" target="JJhkUHVivG3j7rxepxkd-20">
          <mxGeometry relative="1" as="geometry" />
        </mxCell>
        <mxCell id="JJhkUHVivG3j7rxepxkd-36" value="&lt;b&gt;&lt;i&gt;&lt;font style=&quot;font-size: 13px;&quot;&gt;0.3&lt;/font&gt;&lt;/i&gt;&lt;/b&gt;" style="edgeLabel;html=1;align=center;verticalAlign=middle;resizable=0;points=[];" vertex="1" connectable="0" parent="JJhkUHVivG3j7rxepxkd-34">
          <mxGeometry x="-0.1432" relative="1" as="geometry">
            <mxPoint as="offset" />
          </mxGeometry>
        </mxCell>
        <mxCell id="JJhkUHVivG3j7rxepxkd-22" value="&lt;b style=&quot;font-size: 13px;&quot;&gt;&lt;i&gt;Sunny&lt;br&gt;R = 3&lt;/i&gt;&lt;/b&gt;" style="ellipse;whiteSpace=wrap;html=1;aspect=fixed;" vertex="1" parent="1">
          <mxGeometry x="420" y="210" width="80" height="80" as="geometry" />
        </mxCell>
        <mxCell id="JJhkUHVivG3j7rxepxkd-23" style="edgeStyle=orthogonalEdgeStyle;rounded=0;orthogonalLoop=1;jettySize=auto;html=1;exitX=0.5;exitY=0;exitDx=0;exitDy=0;curved=1;entryX=0.768;entryY=0.088;entryDx=0;entryDy=0;entryPerimeter=0;" edge="1" parent="1" source="JJhkUHVivG3j7rxepxkd-22" target="JJhkUHVivG3j7rxepxkd-22">
          <mxGeometry relative="1" as="geometry">
            <mxPoint x="490" y="210" as="targetPoint" />
            <Array as="points">
              <mxPoint x="430" y="210" />
              <mxPoint x="430" y="140" />
              <mxPoint x="481" y="140" />
            </Array>
          </mxGeometry>
        </mxCell>
        <mxCell id="JJhkUHVivG3j7rxepxkd-42" value="&lt;b&gt;&lt;font style=&quot;font-size: 13px;&quot;&gt;0.6&lt;/font&gt;&lt;/b&gt;" style="edgeLabel;html=1;align=center;verticalAlign=middle;resizable=0;points=[];" vertex="1" connectable="0" parent="JJhkUHVivG3j7rxepxkd-23">
          <mxGeometry x="-0.0545" y="-7" relative="1" as="geometry">
            <mxPoint as="offset" />
          </mxGeometry>
        </mxCell>
        <mxCell id="JJhkUHVivG3j7rxepxkd-28" value="&lt;b style=&quot;font-size: 13px;&quot;&gt;&lt;i&gt;Metor&lt;br&gt;R = -10&lt;/i&gt;&lt;/b&gt;" style="ellipse;whiteSpace=wrap;html=1;aspect=fixed;" vertex="1" parent="1">
          <mxGeometry x="260" y="390" width="80" height="80" as="geometry" />
        </mxCell>
      </root>
    </mxGraphModel>
  </diagram>
</mxfile>
